Cantarell-Regular_20180527_Sketch2.ufo
<glyph name="asterisk" format="1">
  <advance width="473"/>
  <unicode hex="002A"/>
  <outline>
    <contour>
      <point x="429" y="566" type="line"/>
      <point x="392" y="627" type="line"/>
      <point x="228" y="502" type="line"/>
      <point x="244" y="475" type="line"/>
    </contour>
    <contour>
      <point x="245" y="473" type="line"/>
      <point x="229" y="499" type="line"/>
      <point x="43" y="408" type="line"/>
      <point x="80" y="348" type="line"/>
    </contour>
    <contour>
      <point x="271" y="282" type="line"/>
      <point x="253" y="488" type="line"/>
      <point x="221" y="488" type="line"/>
      <point x="200" y="282" type="line"/>
    </contour>
    <contour>
      <point x="246" y="501" type="line"/>
      <point x="82" y="628" type="line"/>
      <point x="45" y="568" type="line"/>
      <point x="229" y="475" type="line"/>
    </contour>
    <contour>
      <point x="429" y="406" type="line"/>
      <point x="245" y="499" type="line"/>
      <point x="228" y="472" type="line"/>
      <point x="392" y="346" type="line"/>
    </contour>
    <contour>
      <point x="253" y="488" type="line"/>
      <point x="271" y="694" type="line"/>
      <point x="200" y="694" type="line"/>
      <point x="221" y="488" type="line"/>
    </contour>
  </outline>
</glyph>
<glyph name="e" format="1">
  <advance width="530"/>
  <unicode hex="0065"/>
  <note>
    e
  </note>
  <outline>
    <contour>
      <point x="356" y="-10"/>
      <point x="416" y="3"/>
      <point x="459" y="26" type="curve"/>
      <point x="441" y="84" type="line"/>
      <point x="404" y="66"/>
      <point x="357" y="55"/>
      <point x="315" y="55" type="curve" smooth="yes"/>
      <point x="202" y="55"/>
      <point x="135" y="130"/>
      <point x="135" y="255" type="curve" smooth="yes"/>
      <point x="135" y="364"/>
      <point x="184" y="424"/>
      <point x="272" y="424" type="curve" smooth="yes"/>
      <point x="354" y="424"/>
      <point x="402" y="371"/>
      <point x="402" y="279" type="curve"/>
      <point x="121" y="279" type="line"/>
      <point x="121" y="219" type="line"/>
      <point x="473" y="219" type="line"/>
      <point x="475" y="234"/>
      <point x="477" y="269"/>
      <point x="477" y="288" type="curve" smooth="yes"/>
      <point x="477" y="409"/>
      <point x="397" y="492"/>
      <point x="278" y="492" type="curve" smooth="yes"/>
      <point x="144" y="492"/>
      <point x="53" y="387"/>
      <point x="53" y="239" type="curve" smooth="yes"/>
      <point x="53" y="85"/>
      <point x="148" y="-10"/>
      <point x="301" y="-10" type="curve" smooth="yes"/>
    </contour>
    <contour>
      <point x="430" y="10" type="move" name="ogonek"/>
    </contour>
    <contour>
      <point x="287" y="0" type="move" name="bottom"/>
    </contour>
    <contour>
      <point x="272" y="482" type="move" name="top"/>
    </contour>
  </outline>
</glyph>
<glyph name="r" format="1">
  <advance width="388"/>
  <unicode hex="0072"/>
  <note>
    r
  </note>
  <outline>
    <contour>
      <point x="165" y="0" type="line"/>
      <point x="165" y="370" type="line"/>
      <point x="151" y="482" type="line"/>
      <point x="85" y="482" type="line"/>
      <point x="85" y="0" type="line"/>
    </contour>
    <contour>
      <point x="175" y="374"/>
      <point x="233" y="411"/>
      <point x="299" y="411" type="curve" smooth="yes"/>
      <point x="318" y="411"/>
      <point x="336" y="408"/>
      <point x="352" y="402" type="curve"/>
      <point x="372" y="476" type="line"/>
      <point x="351" y="483"/>
      <point x="330" y="487"/>
      <point x="308" y="487" type="curve" smooth="yes"/>
      <point x="243" y="487"/>
      <point x="183" y="452"/>
      <point x="147" y="394" type="curve"/>
      <point x="147" y="313" type="line"/>
    </contour>
    <contour>
      <point x="229" y="482" type="move" name="top"/>
    </contour>
    <contour>
      <point x="124" y="0" type="move" name="bottom"/>
    </contour>
  </outline>
</glyph>
<glyph name="s" format="1">
  <advance width="470"/>
  <unicode hex="0073"/>
  <note>
    s
  </note>
  <outline>
    <contour>
      <point x="351" y="-10"/>
      <point x="424" y="46"/>
      <point x="424" y="135" type="curve" smooth="yes"/>
      <point x="424" y="312"/>
      <point x="136" y="246"/>
      <point x="136" y="355" type="curve" smooth="yes"/>
      <point x="136" y="397"/>
      <point x="181" y="424"/>
      <point x="253" y="424" type="curve" smooth="yes"/>
      <point x="294" y="424"/>
      <point x="342" y="415"/>
      <point x="383" y="401" type="curve"/>
      <point x="402" y="466" type="line"/>
      <point x="361" y="483"/>
      <point x="312" y="492"/>
      <point x="261" y="492" type="curve" smooth="yes"/>
      <point x="136" y="492"/>
      <point x="56" y="437"/>
      <point x="56" y="346" type="curve" smooth="yes"/>
      <point x="56" y="173"/>
      <point x="343" y="245"/>
      <point x="343" y="127" type="curve" smooth="yes"/>
      <point x="343" y="83"/>
      <point x="304" y="58"/>
      <point x="238" y="58" type="curve" smooth="yes"/>
      <point x="187" y="58"/>
      <point x="119" y="72"/>
      <point x="68" y="94" type="curve"/>
      <point x="49" y="29" type="line"/>
      <point x="104" y="4"/>
      <point x="171" y="-10"/>
      <point x="232" y="-10" type="curve" smooth="yes"/>
    </contour>
    <contour>
      <point x="234" y="482" type="move" name="top"/>
    </contour>
    <contour>
      <point x="239" y="0" type="move" name="bottom"/>
    </contour>
  </outline>
</glyph>
<glyph name="jdotless" format="1">
  <advance width="255"/>
  <unicode hex="0237"/>
  <note>
    uni0237
  </note>
  <outline>
    <contour>
      <point x="115" y="-187"/>
      <point x="168" y="-111"/>
      <point x="168" y="-23" type="curve" smooth="yes"/>
      <point x="168" y="482" type="line"/>
      <point x="88" y="482" type="line"/>
      <point x="88" y="-35" type="line" smooth="yes"/>
      <point x="88" y="-91"/>
      <point x="52" y="-148"/>
      <point x="-2" y="-179" type="curve"/>
      <point x="24" y="-227" type="line"/>
    </contour>
    <contour>
      <point x="128" y="482" type="move" name="top"/>
    </contour>
    <contour>
      <point x="128" y="0" type="move" name="bottom"/>
    </contour>
  </outline>
</glyph>
<glyph name="gravecomb" format="1">
  <advance width="260"/>
  <unicode hex="0300"/>
  <outline>
    <contour>
      <point x="203" y="589" type="line"/>
      <point x="99" y="745" type="line"/>
      <point x="36" y="694" type="line"/>
      <point x="166" y="560" type="line"/>
    </contour>
    <contour>
      <point x="144" y="704" type="move" name="top"/>
    </contour>
    <contour>
      <point x="261" y="546" type="move" name="top_dot"/>
    </contour>
    <contour>
      <point x="178" y="482" type="move" name="_top"/>
    </contour>
  </outline>
</glyph>
<glyph name="uni030B" format="1">
  <advance width="425"/>
  <unicode hex="030B"/>
  <outline>
    <contour>
      <point x="383" y="708" type="line"/>
      <point x="312" y="747" type="line"/>
      <point x="236" y="575" type="line"/>
      <point x="278" y="553" type="line"/>
    </contour>
    <contour>
      <point x="213" y="708" type="line"/>
      <point x="142" y="747" type="line"/>
      <point x="66" y="575" type="line"/>
      <point x="108" y="553" type="line"/>
    </contour>
    <contour>
      <point x="188" y="704" type="move" name="top"/>
    </contour>
    <contour>
      <point x="188" y="482" type="move" name="_top"/>
    </contour>
  </outline>
</glyph>
<glyph name="uni0331" format="1">
  <advance width="489"/>
  <unicode hex="0331"/>
  <outline>
    <contour>
      <point x="401" y="-171" type="line"/>
      <point x="401" y="-106" type="line"/>
      <point x="88" y="-106" type="line"/>
      <point x="88" y="-171" type="line"/>
    </contour>
    <contour>
      <point x="245" y="0" type="move" name="_bottom"/>
    </contour>
    <contour>
      <point x="245" y="-172" type="move" name="bottom"/>
    </contour>
  </outline>
</glyph>
<glyph name="gamma" format="1">
  <advance width="508"/>
  <unicode hex="03B3"/>
  <outline>
    <contour>
      <point x="213" y="-217" type="line"/>
      <point x="297" y="-217" type="line"/>
      <point x="294" y="0" type="line"/>
      <point x="216" y="0" type="line"/>
    </contour>
    <component base="v"/>
  </outline>
</glyph>
<glyph name="epsilon" format="1">
  <advance width="473"/>
  <unicode hex="03B5"/>
  <outline>
    <contour>
      <point x="324" y="-7"/>
      <point x="386" y="5"/>
      <point x="440" y="30" type="curve"/>
      <point x="420" y="96" type="line"/>
      <point x="375" y="78"/>
      <point x="308" y="66"/>
      <point x="258" y="66" type="curve" smooth="yes"/>
      <point x="182" y="66"/>
      <point x="133" y="93"/>
      <point x="133" y="141" type="curve" smooth="yes"/>
      <point x="133" y="191"/>
      <point x="184" y="214"/>
      <point x="273" y="214" type="curve" smooth="yes"/>
      <point x="345" y="214" type="line"/>
      <point x="345" y="281" type="line"/>
      <point x="280" y="281" type="line" smooth="yes"/>
      <point x="192" y="281"/>
      <point x="147" y="311"/>
      <point x="147" y="354" type="curve" smooth="yes"/>
      <point x="147" y="397"/>
      <point x="191" y="420"/>
      <point x="258" y="420" type="curve" smooth="yes"/>
      <point x="304" y="420"/>
      <point x="348" y="411"/>
      <point x="400" y="394" type="curve"/>
      <point x="418" y="457" type="line"/>
      <point x="364" y="482"/>
      <point x="308" y="492"/>
      <point x="250" y="492" type="curve" smooth="yes"/>
      <point x="142" y="492"/>
      <point x="64" y="436"/>
      <point x="64" y="358" type="curve" smooth="yes"/>
      <point x="64" y="292"/>
      <point x="127" y="242"/>
      <point x="211" y="240" type="curve"/>
      <point x="218" y="248" type="line"/>
      <point x="118" y="249"/>
      <point x="48" y="199"/>
      <point x="48" y="128" type="curve" smooth="yes"/>
      <point x="48" y="40"/>
      <point x="143" y="-7"/>
      <point x="262" y="-7" type="curve" smooth="yes"/>
    </contour>
    <contour>
      <point x="235" y="482" type="move" name="top"/>
    </contour>
    <contour>
      <point x="235" y="0" type="move" name="bottom"/>
    </contour>
  </outline>
</glyph>
<glyph name="kappa" format="1">
  <advance width="501"/>
  <unicode hex="03BA"/>
  <outline>
    <contour>
      <point x="165" y="0" type="line"/>
      <point x="165" y="482" type="line"/>
      <point x="85" y="482" type="line"/>
      <point x="85" y="0" type="line"/>
    </contour>
    <contour>
      <point x="496" y="0" type="line"/>
      <point x="245" y="286" type="line"/>
      <point x="239" y="237" type="line"/>
      <point x="474" y="482" type="line"/>
      <point x="379" y="482" type="line"/>
      <point x="163" y="257" type="line"/>
      <point x="390" y="0" type="line"/>
    </contour>
  </outline>
</glyph>
<glyph name="mu" format="1">
  <advance width="565"/>
  <unicode hex="03BC"/>
  <outline>
    <contour>
      <point x="160" y="482" type="line"/>
      <point x="80" y="482" type="line"/>
      <point x="80" y="-217" type="line" smooth="yes"/>
      <point x="160" y="-217" type="line"/>
    </contour>
    <contour>
      <point x="160" y="482" type="move"/>
      <point x="80" y="482" type="line"/>
    </contour>
    <contour>
      <point x="109" y="151" type="line"/>
      <point x="127" y="30"/>
      <point x="181" y="-10"/>
      <point x="265" y="-10" type="curve" smooth="yes"/>
      <point x="324" y="-10"/>
      <point x="394" y="23"/>
      <point x="440" y="73" type="curve"/>
      <point x="421" y="124" type="line"/>
      <point x="383" y="83"/>
      <point x="330" y="60"/>
      <point x="278" y="60" type="curve" smooth="yes"/>
      <point x="206" y="60"/>
      <point x="160" y="101"/>
      <point x="160" y="179" type="curve"/>
    </contour>
    <contour>
      <point x="400" y="482" type="line"/>
      <point x="400" y="56" type="line"/>
      <point x="424" y="0" type="line"/>
      <point x="480" y="0" type="line"/>
      <point x="480" y="482" type="line"/>
    </contour>
    <contour>
      <point x="279" y="482" type="move" name="top"/>
    </contour>
  </outline>
</glyph>
<glyph name="uni0413" format="1">
  <advance width="554"/>
  <unicode hex="0413"/>
  <outline>
    <contour>
      <point x="189" y="0" type="line"/>
      <point x="189" y="620" type="line"/>
      <point x="527" y="620" type="line"/>
      <point x="527" y="694" type="line"/>
      <point x="106" y="694" type="line"/>
      <point x="106" y="0" type="line"/>
    </contour>
    <contour>
      <point x="288" y="694" type="move" name="top"/>
    </contour>
    <contour>
      <point x="198" y="0" type="move" name="bottomright"/>
    </contour>
  </outline>
</glyph>
<glyph name="uni041F" format="1">
  <advance width="727"/>
  <unicode hex="041F"/>
  <outline>
    <contour>
      <point x="187" y="0" type="line"/>
      <point x="187" y="624" type="line"/>
      <point x="540" y="624" type="line"/>
      <point x="540" y="0" type="line"/>
      <point x="621" y="0" type="line"/>
      <point x="621" y="694" type="line"/>
      <point x="106" y="694" type="line"/>
      <point x="106" y="0" type="line"/>
    </contour>
    <contour>
      <point x="707" y="0" type="move" name="bottomright"/>
    </contour>
  </outline>
</glyph>
<glyph name="uni0438" format="1">
  <advance width="80"/>
  <unicode hex="0438"/>
  <outline>
    <contour>
      <point x="157" y="0" type="line"/>
      <point x="432" y="390" type="line"/>
      <point x="423" y="393" type="line"/>
      <point x="423" y="0" type="line"/>
      <point x="498" y="0" type="line"/>
      <point x="498" y="482" type="line"/>
      <point x="424" y="482" type="line"/>
      <point x="151" y="89" type="line"/>
      <point x="161" y="86" type="line"/>
      <point x="161" y="482" type="line"/>
      <point x="85" y="482" type="line"/>
      <point x="85" y="0" type="line"/>
    </contour>
    <contour>
      <point x="292" y="482" type="move" name="top"/>
    </contour>
    <contour>
      <point x="555" y="0" type="move" name="bottomright"/>
    </contour>
  </outline>
</glyph>
<glyph name="uni0447" format="1">
  <advance width="78"/>
  <unicode hex="0447"/>
  <outline>
    <contour>
      <point x="286" y="171"/>
      <point x="358" y="192"/>
      <point x="402" y="226" type="curve"/>
      <point x="387" y="277" type="line"/>
      <point x="349" y="255"/>
      <point x="294" y="241"/>
      <point x="247" y="241" type="curve" smooth="yes"/>
      <point x="176" y="241"/>
      <point x="132" y="276"/>
      <point x="132" y="336" type="curve" smooth="yes"/>
      <point x="132" y="482" type="line"/>
      <point x="51" y="482" type="line"/>
      <point x="51" y="301" type="line" smooth="yes"/>
      <point x="51" y="222"/>
      <point x="119" y="171"/>
      <point x="222" y="171" type="curve" smooth="yes"/>
    </contour>
    <contour>
      <point x="452" y="0" type="line"/>
      <point x="452" y="482" type="line"/>
      <point x="371" y="482" type="line"/>
      <point x="371" y="0" type="line"/>
    </contour>
    <contour>
      <point x="269" y="482" type="move" name="top"/>
    </contour>
    <contour>
      <point x="457" y="0" type="move" name="bottomright"/>
    </contour>
  </outline>
</glyph>
<glyph name="uni0475" format="1">
  <advance width="70"/>
  <unicode hex="0475"/>
  <outline>
    <contour>
      <point x="275" y="0" type="line"/>
      <point x="385" y="323" type="line" smooth="yes"/>
      <point x="406" y="383"/>
      <point x="435" y="422"/>
      <point x="493" y="422" type="curve"/>
      <point x="484" y="492" type="line"/>
      <point x="406" y="492"/>
      <point x="352" y="445"/>
      <point x="324" y="356" type="curve" smooth="yes"/>
      <point x="226" y="44" type="line"/>
      <point x="256" y="44" type="line"/>
      <point x="110" y="486" type="line"/>
      <point x="25" y="486" type="line"/>
      <point x="201" y="0" type="line"/>
    </contour>
  </outline>
</glyph>
<glyph name="guilsinglleft" format="1">
  <advance width="325"/>
  <unicode hex="2039"/>
  <outline>
    <contour>
      <point x="278" y="30" type="line"/>
      <point x="122" y="268" type="line"/>
      <point x="122" y="221" type="line"/>
      <point x="273" y="452" type="line"/>
      <point x="192" y="452" type="line"/>
      <point x="48" y="242" type="line"/>
      <point x="188" y="30" type="line"/>
    </contour>
  </outline>
</glyph>
<glyph name="uni2113" format="1">
  <advance width="494"/>
  <unicode hex="2113"/>
  <outline>
    <contour>
      <point x="347" y="-10"/>
      <point x="377" y="-2"/>
      <point x="403" y="14" type="curve"/>
      <point x="385" y="69" type="line"/>
      <point x="366" y="60"/>
      <point x="346" y="55"/>
      <point x="329" y="55" type="curve" smooth="yes"/>
      <point x="285" y="55"/>
      <point x="253" y="88"/>
      <point x="253" y="135" type="curve" smooth="yes"/>
      <point x="253" y="554" type="line" smooth="yes"/>
      <point x="253" y="630"/>
      <point x="270" y="679"/>
      <point x="297" y="679" type="curve" smooth="yes"/>
      <point x="318" y="679"/>
      <point x="337" y="652"/>
      <point x="337" y="610" type="curve" smooth="yes"/>
      <point x="337" y="510"/>
      <point x="265" y="390"/>
      <point x="63" y="134" type="curve"/>
      <point x="107" y="98" type="line"/>
      <point x="332" y="379"/>
      <point x="411" y="513"/>
      <point x="411" y="622" type="curve" smooth="yes"/>
      <point x="411" y="700"/>
      <point x="370" y="749"/>
      <point x="304" y="749" type="curve" smooth="yes"/>
      <point x="221" y="749"/>
      <point x="173" y="673"/>
      <point x="173" y="544" type="curve" smooth="yes"/>
      <point x="173" y="117" type="line" smooth="yes"/>
      <point x="173" y="42"/>
      <point x="232" y="-10"/>
      <point x="315" y="-10" type="curve" smooth="yes"/>
    </contour>
  </outline>
</glyph>
<glyph name="increment" format="1">
  <advance width="700"/>
  <unicode hex="2206"/>
  <outline>
    <contour>
      <point x="630" y="1" type="line"/>
      <point x="630" y="54" type="line"/>
      <point x="400" y="694" type="line"/>
      <point x="303" y="694" type="line"/>
      <point x="70" y="54" type="line"/>
      <point x="70" y="1" type="line"/>
    </contour>
    <contour>
      <point x="346" y="616" type="line"/>
      <point x="540" y="68" type="line"/>
      <point x="153" y="68" type="line"/>
    </contour>
  </outline>
</glyph>
<glyph name="blackcircle" format="1">
  <advance width="665"/>
  <unicode hex="25CF"/>
  <note>
    H18533
  </note>
  <outline>
    <contour>
      <point x="475" y="109"/>
      <point x="572" y="205"/>
      <point x="572" y="349" type="curve" smooth="yes"/>
      <point x="572" y="490"/>
      <point x="478" y="585"/>
      <point x="335" y="585" type="curve" smooth="yes"/>
      <point x="190" y="585"/>
      <point x="93" y="488"/>
      <point x="93" y="342" type="curve" smooth="yes"/>
      <point x="93" y="202"/>
      <point x="188" y="109"/>
      <point x="330" y="109" type="curve" smooth="yes"/>
    </contour>
  </outline>
</glyph>
<glyph name="uni27E9" format="1">
  <advance width="321"/>
  <unicode hex="27E9"/>
  <outline>
    <contour>
      <point x="132" y="-10" type="line"/>
      <point x="273" y="371" type="line"/>
      <point x="131" y="739" type="line"/>
      <point x="46" y="739" type="line"/>
      <point x="204" y="345" type="line"/>
      <point x="204" y="392" type="line"/>
      <point x="54" y="-10" type="line"/>
    </contour>
  </outline>
</glyph>
<glyph name="acutecomb.loclVIET" format="1">
  <advance width="0"/>
  <outline>
    <contour>
      <point x="220" y="691" type="line"/>
      <point x="159" y="744" type="line"/>
      <point x="50" y="592" type="line"/>
      <point x="86" y="562" type="line"/>
    </contour>
    <contour>
      <point x="117" y="662" type="move" name="top"/>
    </contour>
    <contour>
      <point x="41" y="627" type="move" name="top_dot"/>
    </contour>
    <contour>
      <point x="83" y="482" type="move" name="_top"/>
    </contour>
  </outline>
</glyph>
<glyph name="multiply.tf" format="1">
  <advance width="580"/>
  <outline>
    <contour>
      <point x="504" y="131" type="line"/>
      <point x="131" y="528" type="line"/>
      <point x="83" y="480" type="line"/>
      <point x="457" y="84" type="line"/>
    </contour>
    <contour>
      <point x="500" y="477" type="line"/>
      <point x="453" y="525" type="line"/>
      <point x="75" y="137" type="line"/>
      <point x="122" y="90" type="line"/>
    </contour>
  </outline>
</glyph>
<glyph name="nine.dnom" format="1">
  <advance width="74"/>
  <note>
    nine
  </note>
  <outline>
    <contour>
      <point x="122" y="479"/>
      <point x="51" y="416"/>
      <point x="51" y="322" type="curve" smooth="yes"/>
      <point x="51" y="236"/>
      <point x="112" y="179"/>
      <point x="201" y="179" type="curve" smooth="yes"/>
      <point x="272" y="179"/>
      <point x="331" y="214"/>
      <point x="364" y="279" type="curve"/>
      <point x="345" y="312" type="line"/>
      <point x="320" y="266"/>
      <point x="276" y="240"/>
      <point x="225" y="240" type="curve" smooth="yes"/>
      <point x="166" y="240"/>
      <point x="126" y="276"/>
      <point x="126" y="330" type="curve" smooth="yes"/>
      <point x="126" y="382"/>
      <point x="161" y="416"/>
      <point x="217" y="416" type="curve" smooth="yes"/>
      <point x="293" y="416"/>
      <point x="336" y="353"/>
      <point x="336" y="243" type="curve" smooth="yes"/>
      <point x="336" y="119"/>
      <point x="281" y="55"/>
      <point x="185" y="55" type="curve" smooth="yes"/>
      <point x="149" y="55"/>
      <point x="108" y="64"/>
      <point x="79" y="78" type="curve"/>
      <point x="59" y="21" type="line"/>
      <point x="91" y="3"/>
      <point x="136" y="-7"/>
      <point x="183" y="-7" type="curve" smooth="yes"/>
      <point x="331" y="-7"/>
      <point x="413" y="88"/>
      <point x="413" y="248" type="curve" smooth="yes"/>
      <point x="413" y="398"/>
      <point x="341" y="479"/>
      <point x="224" y="479" type="curve" smooth="yes"/>
    </contour>
  </outline>
</glyph>
<glyph name="uni0307.loclVIET" format="1">
  <advance width="266"/>
  <outline>
    <contour>
      <point x="166" y="550"/>
      <point x="185" y="569"/>
      <point x="185" y="602" type="curve" smooth="yes"/>
      <point x="185" y="635"/>
      <point x="166" y="654"/>
      <point x="133" y="654" type="curve" smooth="yes"/>
      <point x="100" y="654"/>
      <point x="81" y="635"/>
      <point x="81" y="602" type="curve" smooth="yes"/>
      <point x="81" y="569"/>
      <point x="100" y="550"/>
      <point x="133" y="550" type="curve" smooth="yes"/>
    </contour>
    <contour>
      <point x="133" y="604" type="move" name="top"/>
    </contour>
    <contour>
      <point x="133" y="482" type="move" name="_top"/>
    </contour>
  </outline>
</glyph>
<glyph name="uni030C.case" format="1">
  <advance width="386"/>
  <outline>
    <component base="uni030C" yOffset="187"/>
    <contour>
      <point x="184" y="836" type="move" name="top"/>
    </contour>
    <contour>
      <point x="184" y="694" type="move" name="_top"/>
    </contour>
  </outline>
</glyph>
